<?xml version="1.0" encoding="utf-8"?>
<!-- Generator: Adobe Illustrator 16.0.0, SVG Export Plug-In . SVG Version: 6.00 Build 0)  -->
<!DOCTYPE svg PUBLIC "-//W3C//DTD SVG 1.1//EN" "http://www.w3.org/Graphics/SVG/1.1/DTD/svg11.dtd">
<svg version="1.1" id="Layer_1" xmlns="http://www.w3.org/2000/svg" xmlns:xlink="http://www.w3.org/1999/xlink" x="0px" y="0px"
	 width="566.93px" height="566.93px" viewBox="0 0 566.93 566.93" enable-background="new 0 0 566.93 566.93" xml:space="preserve">
<g>
	<path fill="#FF4141" d="M209.689,418.569L209.689,418.569c-0.789-4.469-2.104-8.675-3.68-12.617
		c-2.365-6.307-5.52-12.089-9.725-17.082c-2.103-2.628-4.206-4.992-6.569-7.096c-1.84-1.84-3.681-3.416-5.782-4.731
		c-1.839-1.312-3.942-2.889-6.044-3.94c-1.577-1.05-3.154-1.84-4.993-2.629c-2.102-1.05-4.205-1.84-6.308-2.627
		c-2.104-0.789-4.206-1.315-6.569-1.842c-1.841-0.524-3.944-1.051-5.782-1.051c-0.264-0.264-0.524-0.264-0.79-0.264
		c-6.568-0.787-13.14-0.524-19.71,0.526c-3.942,0.787-7.622,1.84-11.038,2.891h-0.262c-7.098,2.629-13.667,6.308-19.45,11.301
		c-1.312,1.053-2.89,2.366-4.204,3.681s-2.629,2.629-3.68,3.941c-2.366,2.892-4.469,5.782-6.57,8.937
		c-1.84,3.152-3.417,6.309-4.73,9.724c-1.314,3.418-2.366,7.098-3.153,10.774c-0.526,1.84-0.789,3.682-1.051,5.521
		c0,1.84-0.265,3.68-0.265,5.78c0,4.469,0.265,8.675,1.052,13.142c6.045,35.744,39.947,59.92,75.689,53.615
		c35.743-6.044,59.922-39.948,53.614-75.69V418.569z M150.818,464.299c-1.839,0.262-3.941,0.524-6.046,0.524
		c-16.819,0-31.273-12.091-34.428-28.909c-1.313-7.621,0-15.243,3.417-22.074c4.729-9.464,14.19-16.559,24.967-18.399
		c10.513-1.839,21.812,1.315,29.961,8.673c5.782,5.258,9.462,12.353,10.775,19.975C182.881,442.746,170.003,460.885,150.818,464.299
		z"/>
	<polygon fill="#FF4141" points="49.373,339.461 204.695,312.918 217.834,310.552 206.798,245.9 193.655,248.267 180.778,250.369 
		128.741,259.305 115.863,261.407 25.194,277.175 36.495,341.564 	"/>
	<path fill="#FF4141" d="M159.753,413.839c-4.992-4.469-11.826-6.835-18.396-5.521c-7.095,1.315-13.141,5.782-16.032,11.562
		c-1.839,4.205-2.627,8.938-1.839,13.667c1.839,11.825,13.142,19.974,24.967,17.873c12.089-2.104,20.237-13.402,17.871-25.231
		C165.798,421.196,163.171,416.992,159.753,413.839z M152.133,434.863c-1.577,1.838-3.417,3.155-5.782,3.681h-1.578
		c-3.94,0-7.62-3.153-8.408-7.097c-0.263-2.104,0-3.941,0.788-5.781c1.314-2.104,3.68-3.944,7.884-4.732
		c2.104,0,4.206,1.053,6.044,2.629c1.314,1.051,2.104,2.628,2.365,4.993C153.971,431.447,152.92,433.811,152.133,434.863z"/>
	<polygon fill="#FF4141" points="364.042,192.287 260.937,329.737 279.333,326.584 289.582,324.745 294.577,323.955 
		304.039,322.379 309.819,325.271 312.711,321.065 312.711,320.802 387.875,214.625 443.346,202.957 438.569,168.807 	"/>
	<path fill="#FF4141" d="M542.427,159.33c-2.363-14.191-16.031-23.916-30.223-21.55l-6.035,1.877l8.662-12.164l24.968-35.479
		c4.205-6.045,2.628-14.192-3.153-18.397c-5.783-3.941-14.19-2.628-18.396,3.154l-42.841,60.709
		c-1.312,1.84-2.103,3.942-2.103,6.307c-0.261,1.314-0.261,2.366,0,3.68l1.321,6.796l-0.93,0.458v0l-23.78,10.652l6.044,35.479
		l25.319-4.469l36.854-6.359C535.332,187.188,544.792,173.522,542.427,159.33z M481.143,187.276l-0.741-4.03l-2.239-12.222
		l24.814-11.231l3.88,21.627L481.143,187.276z"/>
	<polygon fill="#FF4141" points="132.946,205.164 119.807,207.529 126.377,246.427 126.64,246.427 139.518,244.061 165.535,239.594 
		178.413,237.229 171.844,198.595 158.703,200.959 	"/>
	<path fill="#FF4141" d="M130.844,192.287l25.757-4.469l-8.936-51.773l12.877-2.366c7.097-1.052,12.09-7.884,10.775-14.98
		c-1.313-7.358-8.146-12.089-15.244-10.774l-25.756,4.467c-7.358,1.052-12.088,7.885-10.773,15.244L130.844,192.287z"/>
	<path fill="#FF4141" d="M27.822,407.53c-2.365,2.364-3.679,5.782-3.679,9.197v52.564c0,7.358,5.78,13.14,13.139,13.14
		c7.097,0,13.143-5.78,13.143-13.14v-47.044l6.044-6.308L43.591,391.76L27.822,407.53z"/>
	<path fill="#FF4141" d="M302.2,336.045l-13.143,2.364l-38.897,6.569l-15.244-10.511v-0.265l-14.979-10.512L38.86,354.705
		l6.57,12.353l8.146,15.77l6.045,11.302l6.571,12.088l2.103,4.204c1.577-5.78,3.68-11.301,6.309-16.557
		c3.679-7.621,8.672-14.453,14.979-20.234c1.576-1.576,3.417-3.155,4.993-4.47c4.993-4.203,10.775-7.883,17.083-10.512
		c2.103-1.053,4.204-1.841,6.308-2.628c2.102-0.791,4.469-1.578,6.833-2.104c2.366-0.789,4.468-1.052,6.834-1.577
		c2.364-0.263,4.73-0.787,6.833-1.052c2.364-0.263,4.729-0.263,6.832-0.263c3.942,0,7.885,0.263,11.826,1.052h0.265
		c3.416,0.525,6.833,1.313,10.25,2.364c3.154,0.787,6.307,2.104,9.198,3.417c2.102,0.789,4.204,1.841,6.044,3.153
		c4.469,2.103,8.41,4.992,12.09,8.146c1.839,1.313,3.68,2.894,5.256,4.47c5.255,5.255,9.725,11.036,13.403,17.607
		c1.577,3.153,3.153,6.569,4.468,9.985c0.262,0.79,0.524,1.577,0.787,2.364l68.068-11.562l13.143-2.364l10.775-1.841l-4.205-25.755
		L302.2,336.045z"/>
	<polygon fill="#FF4141" points="319.544,359.961 322.435,377.308 324.801,390.447 352.657,390.447 352.657,495.572 405.22,390.447 
		316.653,343.666 	"/>
</g>
</svg>
