<?xml version="1.0" encoding="utf-8"?>
<!-- Generator: Adobe Illustrator 16.0.0, SVG Export Plug-In . SVG Version: 6.00 Build 0)  -->
<!DOCTYPE svg PUBLIC "-//W3C//DTD SVG 1.1//EN" "http://www.w3.org/Graphics/SVG/1.1/DTD/svg11.dtd">
<svg version="1.1" id="Layer_1" xmlns="http://www.w3.org/2000/svg" xmlns:xlink="http://www.w3.org/1999/xlink" x="0px" y="0px"
	 width="566.93px" height="566.93px" viewBox="0 0 566.93 566.93" enable-background="new 0 0 566.93 566.93" xml:space="preserve">
<g>
	<path fill="#FF4141" d="M130.554,315.637c-24.064,0-43.61,19.578-43.61,43.625c0,24.049,19.552,43.621,43.61,43.621
		c24.063,0,43.615-19.572,43.615-43.615C174.18,335.215,154.618,315.637,130.554,315.637z"/>
	<path fill="#FF4141" d="M130.538,246.061c-62.427,0-113.212,50.775-113.212,113.21c0,62.43,50.791,113.229,113.212,113.229
		c62.438,0,113.248-50.803,113.248-113.229C243.791,296.836,192.975,246.061,130.538,246.061z M130.554,423.029
		c-35.152,0-63.757-28.594-63.757-63.762s28.6-63.768,63.757-63.768s63.757,28.604,63.757,63.768
		C194.311,394.43,165.712,423.029,130.554,423.029z"/>
	<path fill="#FF4141" d="M468.953,311.207c-44.473,0-80.62,36.17-80.62,80.631c0,44.467,36.143,80.652,80.62,80.652
		c44.455,0,80.65-36.186,80.65-80.652C549.609,347.377,513.408,311.207,468.953,311.207z M468.953,429.791
		c-20.961,0-37.946-16.986-37.946-37.947s16.979-37.938,37.946-37.938c20.962,0,37.955,16.971,37.955,37.938
		C506.908,412.799,489.915,429.791,468.953,429.791z"/>
	<path fill="#FF4141" d="M403.604,318.889c-16.863-13.195-44.003-29.488-80.801-37.5v-10.231
		c41.316,8.476,71.119,26.691,88.982,41.099c16.11-11.646,35.816-18.594,57.167-18.594c11.583,0,22.643,2.123,32.938,5.84
		c-1.079-25.278-4.205-51.903-12.625-55.09c-41.444-15.432-95.443-24.662-138.99-28.558v-80.263c0-11.27,5.615-13.882,6.402-14.202
		c5.367-1.506,8.486-7.085,6.958-12.434c-1.512-5.339-7.016-8.42-12.429-6.936c-7.83,2.22-21.073,11.763-21.073,33.572v78.771
		c-3.082-0.176-5.988-0.281-8.879-0.4l-23.56-101.36c-0.921-3.933-4.082-6.941-8.054-7.638
		c-4.854-0.852-119.874-20.85-206.387-3.433c-5.445,1.097-8.984,6.403-7.899,11.86c1.098,5.45,6.383,9.012,11.864,7.882
		c1.204-0.239,2.454-0.404,3.663-0.628l-15.884,92.394c-0.026,0.192,0.041,0.385,0.017,0.592h-3.571
		c-19.035,0-22.825,12.273-22.825,12.273l-11.662,29.233l9.693,4.816c22.67-19.183,51.945-30.812,83.882-30.812
		c71.784,0,130.159,58.392,130.159,130.136c0,12.59-1.885,24.723-5.237,36.24H371.29c-0.048-1.332-0.197-2.643-0.197-3.994
		C371.093,362.691,383.691,336.82,403.604,318.889z M442.052,248.287c2.576-1.007,5.492,0.26,6.541,2.848l8.166,20.815
		c1.016,2.583-0.272,5.5-2.848,6.527c-0.607,0.223-1.22,0.34-1.849,0.34c-2.001,0-3.892-1.214-4.685-3.188l-8.176-20.818
		C438.191,252.225,439.465,249.298,442.052,248.287z M418.321,248.287c2.551-1.007,5.499,0.26,6.525,2.848l8.176,20.815
		c1.013,2.583-0.271,5.5-2.853,6.527c-0.607,0.223-1.226,0.34-1.848,0.34c-2.018,0-3.9-1.214-4.688-3.188l-8.165-20.818
		C414.453,252.225,415.724,249.298,418.321,248.287z M182.084,218.623c-7.914-2.593-15.559-4.461-22.271-4.994H95.338l14.878-86.532
		h71.867L182.084,218.623L182.084,218.623z M302.65,296.166l-36.476-0.045c-12.11-32.511-38.063-55.741-63.96-69.165v-99.855h78.171
		l22.255,95.805v73.264h0.01V296.166z"/>
</g>
</svg>
